<svg xmlns="http://www.w3.org/2000/svg" viewBox="95.95 67 419.54 78.45"><path fill="#FCFCFC" d="m256.702 67.025 18.435.18-.177 22.216-.123 37.02.066 13.717c.021 1.537.541 3.994-.262 5.289-1.852-.35-3.971-.182-5.859-.195l-11.459.021-.229-58.95-.025-11.937c.026-2.03.334-4.392.06-6.368-.052-.372-.222-.685-.427-.993Zm112.689-.015 66.767.038-.101 18.11-24.402-.017c.323 2.25.25 4.624.294 6.896l.086 12.93c.002 4.918.358 10.172-.081 15.056-.038.423-.286.831-.52 1.175.974 1.252.533 4.746.53 6.351-.012 5.913-.338 11.962.087 17.857l-18.012-.019-.131-60.39-24.051.025c.314-4.162.023-8.581.013-12.764-.004-1.352.33-3.957-.384-5.105l-.095-.144Zm72.882.022 18.887.026-.015.549.019 14.724c.014 3.466-.352 7.575.66 10.923.845 2.797 2.555 5.313 4.604 7.368 3.57 3.579 8.023 5.259 13.046 5.262 4.856.003 9.388-2.036 12.797-5.462 1.845-1.854 3.401-4.128 4.19-6.636 1.211-3.85.915-8.076.915-12.064l-.019-14.667 17.891.175c.432.608.139 3.977.132 4.879l-.3 18.323c-.196 3.288-.975 10.556-3.514 12.809.043.78-.391 1.377-.767 2.051-4.816 8.645-13.144 15.066-22.618 17.755l.215 22.308c-2.133-.326-4.461-.139-6.622-.141l-11.282.132c-.517-1.308-.148-4.023-.154-5.505l-.078-16.723-.73-.169c-5.536-1.47-11.063-5.003-15.158-8.954-5.297-5.11-8.973-11.536-10.473-18.744-1.575-7.569-1.014-15.847-1.113-23.554-.016-1.257.245-3.505-.417-4.525l-.096-.14Zm-346.328-.026 72.423.03.036 18.377c-1.874-.215-3.897-.034-5.789-.028l-10.877.026-37.781.031c.387 3.877.139 8.178.021 12.075 4.287-.536 9.23-.046 13.59-.04l30.009.03 3.943-.115.164 18.326-47.982-.114.386 29.809-18.107-.004-.036-78.403Zm209.178.13 57.313-.093.065 18.099c-2.258-.296-4.684-.13-6.963-.126l-11.999.007-34.526.055c-2.294.09-4.087.296-5.712 2.11-1.114 1.243-1.315 2.634-1.203 4.233.144 2.047 1.416 4.216 3.361 5.054 2.617 1.127 6.799.763 9.652.77l17.438.029c3.333.008 6.989-.267 10.271.383 4.047.802 8.159 3.035 11.254 5.717 4.672 4.047 7.883 9.324 8.305 15.581.446 6.599-1.39 12.758-5.778 17.79-4.255 4.88-9.68 7.799-16.139 8.25l-56.271.229-.123-17.718c2.965.328 6.113.179 9.104.188l15.227.036 18.252.024c3.605.002 7.279.146 10.874-.133 2.234-.174 3.842-.627 5.337-2.412.983-1.172 1.742-2.852 1.57-4.408-.201-1.815-1.688-4.293-3.381-5.075-2.419-1.118-6.146-.853-8.779-.86l-17.457.023c-3.982.013-8.365.335-12.271-.498-3.189-.68-6.273-2.098-8.831-4.127-5.131-4.07-8.94-9.857-9.686-16.442-.705-6.225.834-12.404 4.767-17.314 4.281-5.342 9.521-8.627 16.329-9.372Zm-128.834-.135 72.124.104.07 18.293c-5.154-.598-10.853-.062-16.072-.05l-38.22-.01c.074 3.895.376 8.188-.168 12.035 1.388.269 3.089.114 4.511.121l8.974.02 33.732-.021-.014 13.451c.015.951.386 3.911-.037 4.667l-30.283-.079-17.082.037c.282 1.674.162 3.493.165 5.192.005 2.28.094 4.593-.186 6.859l34.643.016 12.602.055c2.257.011 4.676.197 6.91-.052l.182-.021.113 17.619-57.811.068-9.718.023c-1.182.019-3.098.305-4.193-.056l-.242-78.271Z"></path></svg>